<svg width="896" height="897" viewBox="0 0 896 897" fill="none" xmlns="http://www.w3.org/2000/svg">
<path d="M579.929 698.261L573.486 706.081C570.889 702.453 568.198 700.088 565.413 698.961C562.628 697.834 559.496 698.019 556.017 699.543C553.544 700.632 551.809 702.152 550.825 704.116C549.842 706.08 549.799 708.094 550.711 710.196C551.666 712.39 553.263 713.705 555.544 714.152C557.812 714.612 561.115 714.301 565.48 713.243C570.537 712 575.055 711.97 579.037 713.178C583.018 714.386 585.877 716.986 587.614 720.979C589.394 725.064 589.269 729.132 587.225 733.17C585.182 737.208 581.673 740.316 576.673 742.495C571.912 744.586 567.411 745.179 563.131 744.29C558.865 743.413 555.283 741.279 552.399 737.902L557.865 730.155C560.247 732.905 562.661 734.595 565.081 735.198C567.501 735.801 570.159 735.484 573.069 734.207C575.45 733.161 577.193 731.883 578.31 730.33C579.428 728.803 579.604 727.175 578.866 725.469C578.027 723.566 576.381 722.414 573.914 722.027C571.448 721.64 567.931 721.959 563.324 722.998C557.491 724.293 552.836 724.274 549.36 722.942C545.885 721.61 543.206 718.789 541.353 714.505C539.458 710.183 539.519 705.795 541.484 701.371C543.461 696.932 547.082 693.565 552.373 691.269C557.942 688.843 563.061 688.283 567.743 689.602C572.426 690.921 576.474 693.803 579.875 698.263L579.929 698.261Z" fill="#2834F8"/>
<path d="M536.239 720.269L544.599 754.043L534.619 756.523L526.167 722.376C525.32 718.958 523.848 716.539 521.738 715.135C519.628 713.73 517.083 713.399 514.102 714.143C511.122 714.886 509.036 716.364 507.833 718.59C506.63 720.817 506.425 723.64 507.286 727.072L515.725 761.232L505.746 763.711L497.386 729.938C495.8 723.54 496.299 718.158 498.842 713.781C501.397 709.39 505.716 706.443 511.824 704.938C517.931 703.432 523.113 703.997 527.409 706.67C531.706 709.342 534.653 713.871 536.239 720.269Z" fill="#2834F8"/>
<path d="M486.998 711.629L491.066 765.973L471.493 767.472C465.539 767.926 460.732 766.907 457.058 764.401C453.384 761.895 451.364 758.287 451.013 753.591C450.709 749.511 451.406 746.135 453.105 743.489C454.804 740.844 457.535 738.593 461.298 736.737L446.609 714.763L458.329 713.862L472.333 734.96L478.394 734.502L476.738 712.468L486.986 711.669L486.998 711.629ZM479.082 743.466L469.222 744.211C463.522 744.643 460.856 747.24 461.222 752.003C461.589 756.765 464.595 758.931 470.307 758.485L480.168 757.74L479.095 743.452L479.082 743.466Z" fill="#2834F8"/>
<path d="M441.3 714.392L436.286 768.678L399.62 765.344L400.455 756.196L426.885 758.598L428.18 744.552L404.077 742.354L404.911 733.206L429.015 735.404L431.037 713.461L441.273 714.393L441.3 714.392Z" fill="#2834F8"/>
<path d="M340.461 716.557L336.447 726.08L326.931 722.079L330.946 712.557L340.461 716.557Z" fill="#2834F8"/>
<path d="M287.345 660.822L251.424 701.857L236.675 688.952C232.178 685.025 229.551 680.874 228.781 676.488C228.01 672.101 229.158 668.133 232.277 664.581C234.981 661.5 237.872 659.633 240.962 658.966C244.053 658.327 247.565 658.679 251.526 660.075L256.949 634.169L265.792 641.907L260.522 666.708L265.088 670.7L279.672 654.051L287.398 660.82L287.345 660.822ZM259.082 677.499L251.646 671.002C247.356 667.242 243.638 667.166 240.48 670.758C237.323 674.351 237.896 678.034 242.2 681.779L249.636 688.277L259.082 677.499Z" fill="#2834F8"/>
<path d="M253.331 630.052L211.1 664.579L188.756 637.228L195.866 631.41L211.72 650.811L221.432 642.881L206.959 625.165L214.069 619.348L228.542 637.064L239.691 627.933L223.697 608.35L230.807 602.533L253.304 630.053L253.331 630.052Z" fill="#2834F8"/>
<path d="M212.909 605.679L204.456 600.101C207.781 597.133 209.874 594.206 210.707 591.322C211.541 588.437 211.026 585.329 209.151 582.039C207.815 579.696 206.129 578.143 204.08 577.367C202.03 576.59 200.011 576.778 198.021 577.905C195.953 579.087 194.789 580.829 194.58 583.13C194.372 585.43 194.999 588.695 196.502 592.91C198.268 597.813 198.76 602.303 197.965 606.394C197.17 610.484 194.896 613.605 191.088 615.757C187.203 617.966 183.149 618.276 178.94 616.673C174.718 615.084 171.264 611.9 168.578 607.175C166.021 602.674 164.954 598.243 165.392 593.897C165.83 589.55 167.574 585.776 170.636 582.536L178.897 587.155C176.407 589.813 174.987 592.382 174.636 594.862C174.273 597.328 174.879 599.95 176.429 602.701C177.708 604.965 179.167 606.566 180.807 607.504C182.446 608.442 184.083 608.467 185.703 607.541C187.521 606.515 188.471 604.753 188.619 602.267C188.754 599.768 188.08 596.303 186.57 591.847C184.66 586.184 184.217 581.558 185.175 577.959C186.147 574.372 188.667 571.404 192.724 569.096C196.834 566.759 201.193 566.345 205.8 567.827C210.407 569.309 214.132 572.564 216.988 577.579C219.986 582.857 221.059 587.891 220.246 592.692C219.42 597.481 216.957 601.829 212.896 605.693L212.909 605.679Z" fill="#2834F8"/>
<path d="M204.317 555.832L153.076 574.432L141.059 541.21L149.703 538.077L158.233 561.639L170.02 557.368L162.239 535.861L170.883 532.728L178.664 554.236L192.2 549.317L183.595 525.53L192.24 522.398L204.331 555.845L204.317 555.832Z" fill="#2834F8"/>
<path d="M190.846 519.065L133.942 510.681L132.168 500.882L182.509 472.965L184.478 483.83L171.247 490.75L174.079 506.375L188.89 508.186L190.846 519.065ZM164.52 505.192L162.713 495.234L152.095 500.806C149.572 502.004 147.694 502.844 146.462 503.328C147.791 503.351 149.847 503.483 152.617 503.712L164.52 505.192Z" fill="#2834F8"/>
<path d="M182.675 470.626L128.18 471.335L127.943 451.721C127.874 445.755 129.211 441.003 131.942 437.505C134.674 434.007 138.412 432.205 143.13 432.128C147.232 432.071 150.56 432.979 153.088 434.853C155.628 436.713 157.691 439.581 159.304 443.457L182.201 430.151L182.349 441.908L160.383 454.579L160.456 460.653L182.562 460.356L182.675 470.626ZM151.42 460.767L151.306 450.886C151.231 445.175 148.821 442.345 144.049 442.425C139.276 442.477 136.927 445.372 136.976 451.084L137.09 460.965L151.407 460.781L151.42 460.767Z" fill="#2834F8"/>
<path d="M155.383 424.368C147.273 423.217 140.881 420.038 136.236 414.855C131.592 409.672 129.869 403.614 131.044 396.708C131.836 391.679 133.763 387.765 136.838 384.953C139.9 382.155 143.86 380.56 148.69 380.224L151.542 389.732C144.912 390.437 141.187 393.472 140.34 398.865C139.759 402.505 140.988 405.737 143.974 408.534C146.96 411.331 151.325 413.184 157.012 414.066C162.97 414.994 167.718 414.607 171.286 412.932C174.854 411.257 176.961 408.37 177.621 404.257C178.022 401.695 177.425 399.368 175.843 397.288C174.247 395.196 171.871 393.438 168.674 392.002L174.001 383.683C184.194 388.734 188.507 396.154 186.983 405.956C185.845 413.183 182.417 418.394 176.658 421.577C170.912 424.747 163.821 425.695 155.424 424.38L155.383 424.368Z" fill="#2834F8"/>
<path d="M189.938 382.574L138.276 365.296L141.545 355.544L162.354 362.506L168.405 344.493L147.596 337.53L150.866 327.778L202.528 345.055L199.258 354.807L177.419 347.504L171.369 365.517L193.208 372.821L189.938 382.574Z" fill="#2834F8"/>
<path d="M214.652 278.246L206.42 272.017L212.662 263.774L220.894 270.004L214.652 278.246Z" fill="#2834F8"/>
<path d="M264.114 219.43C259.367 212.748 257.286 205.937 257.855 198.984C258.425 192.031 261.618 186.6 267.448 182.703C271.634 179.814 275.79 178.508 279.943 178.785C284.083 179.075 287.949 180.851 291.527 184.124L286.598 192.739C281.538 188.415 276.757 187.81 272.27 190.911C269.239 193.011 267.741 196.105 267.752 200.222C267.776 204.326 269.433 208.763 272.709 213.496C276.125 218.438 279.674 221.632 283.341 223.065C287.008 224.498 290.56 224.031 293.972 221.663C296.11 220.183 297.387 218.156 297.8 215.554C298.227 212.964 297.851 210.013 296.713 206.711L306.404 204.845C309.741 215.717 307.336 223.966 299.174 229.604C293.151 233.762 287.003 234.866 280.757 232.889C274.499 230.925 268.95 226.43 264.114 219.43Z" fill="#2834F8"/>
<path d="M318.864 215.372L295.911 165.979L313.698 157.686C319.102 155.158 323.988 154.431 328.299 155.48C332.611 156.53 335.781 159.187 337.768 163.466C339.496 167.19 340.033 170.579 339.368 173.673C338.715 176.752 336.949 179.829 334.069 182.876L355.575 198.265L344.924 203.235L324.375 188.431L318.864 190.989L328.181 211.024L318.864 215.372ZM315.062 182.801L324.036 178.625C329.202 176.212 330.798 172.846 328.782 168.514C326.767 164.183 323.169 163.23 318.002 165.643L309.029 169.819L315.062 182.801Z" fill="#2834F8"/>
<path d="M360.795 196.682L346.471 144.117L380.573 134.781L382.989 143.647L358.791 150.277L362.087 162.358L384.17 156.295L386.585 165.16L364.502 171.223L368.285 185.112L392.695 178.421L395.11 187.286L360.782 196.696L360.795 196.682Z" fill="#2834F8"/>
<path d="M398.521 186.166L411.511 130.099L421.431 129.096L445.164 181.482L434.162 182.587L428.345 168.847L412.53 170.435L409.523 185.061L398.521 186.166ZM414.509 161.007L424.589 159.999L419.892 148.971C418.91 146.361 418.218 144.413 417.842 143.152C417.71 144.457 417.413 146.519 416.965 149.27L414.523 161.02L414.509 161.007Z" fill="#2834F8"/>
<path d="M461.27 182.74L464.344 137.841L449.748 136.854L450.398 127.377L489.858 130.027L489.208 139.504L474.612 138.517L471.538 183.416L461.283 182.726L461.27 182.74Z" fill="#2834F8"/>
<path d="M493.189 185.628L505.942 132.613L540.309 140.839L538.167 149.776L513.8 143.952L510.864 156.148L533.108 161.466L530.966 170.403L508.721 165.085L505.359 179.092L529.956 184.976L527.814 193.913L493.23 185.641L493.189 185.628Z" fill="#2834F8"/>
<path d="M597.304 200.441L602.805 191.687L611.55 197.175L606.049 205.929L597.304 200.441Z" fill="#2834F8"/>
<path d="M642.027 265.469L648.991 259.697L656.635 268.91L684.699 245.627L677.349 236.766L684.313 230.994L705.57 256.624L698.606 262.396L691.255 253.535L663.19 276.818L670.834 286.032L663.87 291.804L642.026 265.442L642.027 265.469Z" fill="#2834F8"/>
<path d="M668.908 298.783L716.131 271.507L721.342 280.546L701.67 310.054C700.263 312.193 699.211 313.703 698.528 314.571L730.37 296.178L735.098 304.402L687.876 331.679L682.665 322.639L702.337 293.132C703.592 291.266 704.643 289.756 705.479 288.614L673.637 307.008L668.908 298.783Z" fill="#2834F8"/>
<path d="M690.709 337.715L741.832 318.744L745.443 328.521L721.093 354.322C719.342 356.191 718.069 357.494 717.235 358.247L751.71 345.465L754.999 354.368L703.889 373.325L700.278 363.548L724.628 337.747C726.185 336.112 727.472 334.822 728.486 333.822L694.011 346.604L690.722 337.701L690.709 337.715Z" fill="#2834F8"/>
<path d="M712.372 381.559C716.488 376.888 723.012 373.719 731.931 372.039C740.85 370.359 748.083 370.922 753.605 373.755C759.127 376.588 762.539 381.396 763.802 388.194C765.078 394.978 763.665 400.699 759.535 405.357C755.419 410.028 748.895 413.197 739.977 414.876C731.058 416.556 723.825 415.993 718.303 413.16C712.781 410.327 709.381 405.505 708.105 398.721C706.829 391.937 708.243 386.217 712.372 381.559ZM717.437 396.961C718.842 404.411 725.696 406.958 738.054 404.627C750.398 402.283 755.875 397.405 754.47 389.955C753.066 382.505 746.198 379.945 733.854 382.289C721.51 384.633 716.033 389.51 717.437 396.961Z" fill="#2834F8"/>
<path d="M713.626 437.659L767.774 418.507L767.977 429.484L734.161 440.674C731.839 441.436 729.754 442.082 727.893 442.601L734.222 444.267L768.44 454.093L768.643 465.071L713.812 448.101L713.613 437.673L713.626 437.659Z" fill="#2834F8"/>
<path d="M714.298 464.18L765.455 490.42L763.985 500.273L707.355 510.55L708.991 499.604L723.737 497.3L726.093 481.597L712.662 475.125L714.298 464.18ZM734.756 485.787L733.265 495.802L745.114 493.93C747.88 493.609 749.939 493.406 751.265 493.349C750.017 492.908 748.114 492.113 745.558 491.018L734.77 485.799L734.756 485.787Z" fill="#2834F8"/>
<path d="M702.144 525.865L744.902 539.819L749.461 525.892L758.486 528.836L746.154 566.44L737.128 563.496L741.686 549.57L698.928 535.616L702.13 525.852L702.144 525.865Z" fill="#2834F8"/>
<path d="M691.453 556.066L739.645 581.453L723.142 612.732L715.025 608.456L726.737 586.283L715.647 580.444L704.948 600.706L696.831 596.431L707.518 576.183L694.778 569.474L682.966 591.865L674.85 587.589L691.468 556.105L691.453 556.066Z" fill="#2834F8"/>
<path d="M648.937 655.595L655.99 663.139L648.437 670.204L641.384 662.661L648.937 655.595Z" fill="#2834F8"/>
</svg>
