<svg width="116" height="80" viewBox="0 0 116 80" fill="none" xmlns="http://www.w3.org/2000/svg">
<path d="M51.1429 27.8625C49.0068 31.1093 40.4489 35.9793 31.9972 35.7999C33.3184 38.2597 36.3574 40.5343 42.1503 39.5506C54.3378 37.4806 68.9907 21.9297 67.9409 11.2927H67.9338C67.8911 11.2927 67.8477 11.2927 67.805 11.2925C67.4846 14.7866 65.2045 19.8013 63.0702 21.5333C64.3419 19.9366 66.7094 15.5993 66.6548 11.0578C66.5199 -0.16008 51.6105 -3.27966 34.3493 3.94982C34.3444 3.95188 34.3901 3.93972 34.4809 3.91558L34.4857 3.91432C35.6896 3.59417 44.5343 1.24211 48.5816 1.75353C22.1852 5.83579 1.28975 25.1526 0.757451 38.0933C0.233758 50.8265 13.7883 52.838 25.5849 54.5886C34.8785 55.9678 43.0811 57.185 42.4486 63.3556C44.273 57.6811 35.727 53.9812 31.8616 52.3077C31.051 51.9568 30.4463 51.695 30.1862 51.5227C30.3484 51.4514 30.4642 51.4534 30.5733 51.4755C34.2747 52.2088 43.2566 56.1394 43.461 61.3136C43.8107 70.163 31.4412 72.1555 29.0017 70.3444C29.3631 71.7237 32.2921 73.4628 35.4725 72.6916C34.0356 73.4562 27.9331 73.4781 27.6361 68.8635C27.4565 66.0776 28.8363 64.276 28.8363 64.276C28.5643 64.2993 27.9653 65.1503 27.7746 65.5154C27.6449 65.7626 27.5198 65.9572 27.177 65.9354C27.0281 65.9259 26.789 66.0471 26.7152 66.1873C24.2035 70.9821 27.736 76.6357 34.5699 76.1339C39.032 75.8068 42.0321 73.7357 43.2552 72.4256C42.5949 72.8729 41.3556 73.6451 40.4001 73.7798C40.3926 73.7614 40.3851 73.7429 40.3777 73.7244C40.3702 73.7059 40.3627 73.6874 40.3552 73.6689C43.5631 71.8172 46.2179 69.0797 46.6829 65.3893C48.1077 54.0771 34.9245 50.0553 23.1219 46.4547C14.4435 43.8072 6.51155 41.3874 5.68276 36.4644C3.07092 20.9486 51.982 0.0627323 63.4083 9.95925C62.217 4.07181 47.6513 6.01851 45.3698 6.32342L45.3685 6.32359C45.1752 6.34945 45.0704 6.36345 45.07 6.35976C53.4062 3.61214 64.6322 4.12803 64.8954 10.7973C65.1065 16.1362 54.6046 29.3178 34.5278 33.639C38.5766 34.9648 47.2401 31.2996 51.1429 27.8625Z" fill="#2834F8"/>
<path d="M43.0151 9.80018C21.0054 14.8988 -1.72835 33.4099 10.1612 37.9694C6.68488 32.4381 16.0982 18.5956 43.0151 9.80018Z" fill="#2834F8"/>
<path d="M70.5186 38.9086C70.3847 38.6455 70.1452 38.4214 69.8961 38.1883C69.4198 37.7427 68.9087 37.2645 69.0345 36.4188C69.0388 36.3875 69.0109 36.3514 68.985 36.3177C68.9777 36.3084 68.9705 36.2989 68.9642 36.2901C68.694 35.9047 68.4428 35.9315 68.1709 36.3396C67.508 37.3324 66.8273 38.3168 66.1449 39.2923C64.2684 41.9744 57.2656 50.842 54.8481 51.1347C54.3682 51.192 54.1692 50.8284 54.1343 50.4272C54.0046 48.9195 55.5259 45.1064 57.8444 42.1871C55.6228 46.1386 55.2641 48.5364 55.7305 49.0789C57.3757 43.0495 62.8122 37.3617 67.3294 33.5012L67.3491 33.4811C67.4342 33.3945 67.5042 33.3231 67.5031 33.2453C67.4867 31.9492 65.5817 30.5232 63.4632 30.6081C63.7469 29.6942 62.9686 29.0638 62.3639 29.0897C61.7693 30.1991 58.5962 35.0043 56.8669 36.8856C52.2915 41.9272 45.6785 47.1173 38.6049 50.1039C38.4664 50.1753 39.8871 51.5567 42.82 50.1943C42.7578 50.3379 41.9494 51.0535 41.2102 51.1445C41.6141 51.5075 43.187 51.5449 44.4366 51.1425C47.2462 50.2364 51.5975 45.6876 52.8979 43.9815C52.8202 44.1123 52.7178 44.28 52.5956 44.4802C51.4759 46.3146 48.6973 50.8668 48.1095 54.5232C47.769 56.6423 48.0165 58.3949 49.2575 58.5766C49.4995 60.6018 51.0312 62.0681 52.1388 61.9279C52.3284 61.9046 52.5263 61.7515 52.585 61.4533C53.6789 55.8899 61.2321 46.5882 61.9189 47.53C59.5083 50.7706 57.348 57.0193 58.4242 59.9807C59.0712 61.7607 61.7849 62.4437 65.3155 61.0402C62.493 59.6988 63.1296 52.8332 64.2176 50.1465C63.3367 54.5128 63.9008 58.3929 65.0738 59.2971L65.1455 59.2521C63.331 51.0587 67.4737 43.3552 70.4737 40.1696C70.7425 39.7168 70.75 39.3622 70.5186 38.9086Z" fill="#2834F8"/>
<path d="M112.957 50.2875C114.352 48.6334 114.322 46.0173 113.877 45.5293C117.675 45.2074 114.796 49.78 112.957 50.2875Z" fill="#2834F8"/>
<path d="M32.2012 62.4709C27.2324 64.5177 28.9216 70.6189 32.2909 70.0114C29.7781 69.5775 29.6935 64.5065 35.8096 63.2355C35.7817 61.921 33.51 61.931 32.2012 62.4709Z" fill="#2834F8"/>
<path d="M25.0289 75.584C25.7923 76.2025 25.7165 77.1958 24.5686 77.3878C23.5486 77.558 22.4666 76.537 22.0719 75.3311C21.4395 73.398 22.4797 71.4443 23.4803 70.7222C22.7434 72.0314 23.4034 74.2694 25.0289 75.584Z" fill="#2834F8"/>
<path fill-rule="evenodd" clip-rule="evenodd" d="M112.338 44.9686C111.455 42.7594 102.099 43.6601 96.5792 46.0382C96.46 45.7693 96.3341 45.5179 96.1993 45.285C97.77 41.286 102.542 33.9752 107.649 28.9939C108.531 28.1347 109.421 27.3449 110.307 26.6532C110.412 25.1622 106.441 23.2254 103.819 25.349C100.619 28.7483 97.3331 35.3688 95.8783 38.5055L95.575 38.5159C96.2482 35.0033 99.8129 28.6027 101.989 26.5108C99.1397 26.6105 93.1526 38.4663 89.9306 49.3683H89.9233C86.5259 50.8028 80.195 54.6341 78.0306 56.931C77.9102 57.0589 77.7531 56.5865 77.7427 56.4185C77.4057 51.1251 83.1259 47.1654 88.2837 43.595C88.768 43.2598 89.2472 42.9279 89.7161 42.5988C90.4063 42.1137 89.9352 40.6873 89.6461 40.4383C88.6233 41.9461 86.7188 43.4909 84.7457 45.0914C82.7509 46.7094 80.6861 48.3842 79.3916 50.135C80.3072 48.3644 82.7218 46.2232 84.9319 44.2634C87.2322 42.2235 89.3109 40.3802 89.2467 39.356C89.0647 36.4519 85.3782 33.4544 83.7996 32.6563C84.0861 32.1603 84.8014 30.7843 84.5627 29.3175C84.2898 27.6398 82.5434 26.9016 81.0654 27.0452C81.3308 28.0269 81.0411 29.5605 80.772 30.3724C77.8966 28.4321 73.4271 28.1361 73.3874 30.6177C75.3758 29.1933 79.4955 30.2278 81.3131 31.4631C73.2942 28.8624 71.2372 33.197 72.2738 35.4912C72.2738 35.4912 75.6122 35.3907 78.296 36.3818C77.6909 38.0928 73.6953 46.0451 69.1285 50.9904C69.2395 50.9545 69.3492 50.9232 69.4566 50.8926L69.4574 50.8924C69.6618 50.8341 69.8581 50.7781 70.0401 50.6967C70.5931 50.4511 75.6594 43.6569 77.0624 41.5439C77.0898 41.6771 75.9369 44.0757 73.8105 47.3453C76.1745 44.6256 79.9886 38.6926 80.9445 37.1716C80.9445 37.1716 83.7429 38.2683 83.8656 40.2253C83.9541 41.6392 81.3597 43.8997 78.372 46.5029C74.3559 50.0022 69.6289 54.1207 69.7527 57.6342C69.7923 58.7583 70.3801 60.3985 71.555 61.4659C71.079 60.5104 70.8434 59.2592 70.9977 57.8599C71.2121 55.9135 72.1798 53.6815 74.305 51.5588C70.3925 56.4136 71.7747 60.8067 72.6119 62.0129C59.8441 62.8199 49.4979 67.358 49.449 74.4059C49.4791 74.5609 49.3465 74.7725 49.247 74.9293C47.9615 76.9578 48.5232 79.4887 49.3995 79.7936C55.4196 72.5362 65.7322 66.6077 74.7837 64.9055C74.7851 64.7372 74.0533 64.7622 72.8677 64.951C68.4863 65.5678 62.9344 67.1499 58.4666 69.8355C58.3462 66.0953 74.5829 62.3046 84.8064 63.7552C84.9742 62.2723 81.8112 61.6953 78.2919 61.6373C79.9652 55.0004 90.4456 49.5003 94.4774 48.124C90.4981 49.8171 84.1037 53.7605 81.2533 58.0547C83.9472 55.6507 87.5318 53.0561 89.0479 52.3543C85.3102 67.8163 89.2708 74.1078 92.0998 74.0093C94.0659 73.9407 95.8864 71.9079 97.0249 67.2519C96.1307 69.3409 94.9943 70.7498 93.916 70.7875C91.2409 70.8809 90.887 66.9164 90.887 66.9164C92.597 71.2686 97.5082 67.8834 98.0455 60.1187C98.0835 59.5817 98.117 59.0309 98.1434 58.458C98.26 55.9351 98.1489 52.8146 97.6922 50.0828C101.518 48.9114 107.714 48.829 109.388 50.1214C109.801 47.8171 105.548 47.2764 98.6582 48.7795C103.322 47.2683 109.919 46.7356 110.353 48.9535C110.573 50.0793 109.923 51.7412 109.427 52.3802C109.187 52.6883 109.981 52.4549 110.19 52.1863C111.34 50.7091 113.237 47.2187 112.338 44.9686ZM93.6122 65.5741C91.4863 65.7007 91.8443 57.4711 94.3926 50.8938C94.6299 50.7915 94.8985 50.6984 95.1884 50.6102C95.6283 55.674 94.8108 61.0909 93.9649 63.4698C95.1798 63.4278 96.513 58.138 96.4363 53.1158L96.6886 53.1074C97.3716 61.1027 94.95 65.5269 93.6122 65.5741Z" fill="#2834F8"/>
</svg>
