<svg width="200" height="200" viewBox="0 0 200 200" fill="none" xmlns="http://www.w3.org/2000/svg">
<path d="M29.5587 3.25861L29.5686 3.26306L29.5786 3.2674L186.364 71.4432C193.849 74.7236 198.501 81.8493 198.501 89.7819V110.373C198.501 118.32 193.838 125.553 186.382 128.704L186.37 128.709L38.855 192.618L38.8549 192.618L29.5804 196.636L29.5672 196.642L29.5542 196.647C16.5477 202.581 1.59717 192.693 1.59717 178.3C1.59717 170.118 6.61955 162.882 13.7013 159.975L13.7014 159.975L13.7139 159.97L97.1846 124.814L97.1891 124.812C119.086 115.505 119.086 84.65 97.1891 75.3434L97.1881 75.343L13.7338 39.9429C13.731 39.9417 13.7283 39.9405 13.7255 39.9393C6.24571 36.6573 1.59717 29.534 1.59717 21.6043C1.59717 7.2108 16.425 -2.67969 29.5587 3.25861Z" stroke="#2834F8" stroke-width="3"/>
</svg>
