<svg width="116" height="80" viewBox="0 0 116 80" fill="none" xmlns="http://www.w3.org/2000/svg">
<path d="M51.1434 27.8625C49.0072 31.1093 40.4493 35.9793 31.9977 35.7999C33.3188 38.2597 36.3579 40.5343 42.1507 39.5506C54.3383 37.4806 68.9911 21.9297 67.9413 11.2927H67.9342C67.8915 11.2927 67.8481 11.2927 67.8055 11.2925C67.485 14.7866 65.205 19.8013 63.0706 21.5333C64.3424 19.9366 66.7098 15.5993 66.6553 11.0578C66.5203 -0.16008 51.6109 -3.27966 34.3497 3.94982C34.3448 3.95188 34.3906 3.93972 34.4813 3.91558L34.4861 3.91432C35.69 3.59417 44.5347 1.24211 48.582 1.75353C22.1857 5.83579 1.29017 25.1526 0.757878 38.0933C0.234185 50.8265 13.7888 52.838 25.5853 54.5886C34.879 55.9678 43.0815 57.185 42.4491 63.3556C44.2734 57.6811 35.7274 53.9812 31.862 52.3077C31.0514 51.9568 30.4467 51.695 30.1866 51.5227C30.3489 51.4514 30.4647 51.4534 30.5738 51.4755C34.2752 52.2088 43.2571 56.1394 43.4614 61.3136C43.8111 70.163 31.4416 72.1555 29.0021 70.3444C29.3635 71.7237 32.2926 73.4628 35.473 72.6916C34.036 73.4562 27.9335 73.4781 27.6366 68.8635C27.4569 66.0776 28.8367 64.276 28.8367 64.276C28.5647 64.2993 27.9657 65.1503 27.775 65.5154C27.6453 65.7626 27.5202 65.9572 27.1774 65.9354C27.0286 65.9259 26.7894 66.0471 26.7157 66.1873C24.204 70.9821 27.7364 76.6357 34.5703 76.1339C39.0324 75.8068 42.0326 73.7357 43.2556 72.4256C42.5953 72.8729 41.356 73.6451 40.4006 73.7798C40.393 73.7614 40.3855 73.7429 40.3781 73.7244C40.3706 73.7059 40.3631 73.6874 40.3556 73.6689C43.5636 71.8172 46.2183 69.0797 46.6833 65.3893C48.1081 54.0771 34.9249 50.0553 23.1224 46.4547C14.4439 43.8072 6.51198 41.3874 5.68319 36.4644C3.07134 20.9486 51.9824 0.0627323 63.4087 9.95925C62.2174 4.07181 47.6517 6.01851 45.3702 6.32342L45.369 6.32359C45.1756 6.34945 45.0708 6.36345 45.0705 6.35976C53.4066 3.61214 64.6326 4.12803 64.8959 10.7973C65.1069 16.1362 54.605 29.3178 34.5282 33.639C38.577 34.9648 47.2405 31.2996 51.1434 27.8625Z" fill="#ffffff"/>
<path d="M43.0155 9.80018C21.0059 14.8988 -1.72792 33.4099 10.1616 37.9694C6.6853 32.4381 16.0986 18.5956 43.0155 9.80018Z" fill="#ffffff"/>
<path d="M70.5191 38.9086C70.3851 38.6455 70.1456 38.4214 69.8965 38.1883C69.4202 37.7427 68.9091 37.2645 69.0349 36.4188C69.0392 36.3875 69.0114 36.3514 68.9854 36.3177C68.9781 36.3084 68.9709 36.2989 68.9647 36.2901C68.6945 35.9047 68.4432 35.9315 68.1713 36.3396C67.5084 37.3324 66.8277 38.3168 66.1453 39.2923C64.2688 41.9744 57.2661 50.842 54.8485 51.1347C54.3686 51.192 54.1696 50.8284 54.1347 50.4272C54.0051 48.9195 55.5264 45.1064 57.8448 42.1871C55.6232 46.1386 55.2645 48.5364 55.7309 49.0789C57.3761 43.0495 62.8126 37.3617 67.3298 33.5012L67.3495 33.4811C67.4346 33.3945 67.5046 33.3231 67.5035 33.2453C67.4871 31.9492 65.5821 30.5232 63.4636 30.6081C63.7474 29.6942 62.969 29.0638 62.3644 29.0897C61.7698 30.1991 58.5967 35.0043 56.8674 36.8856C52.2919 41.9272 45.6789 47.1173 38.6054 50.1039C38.4668 50.1753 39.8875 51.5567 42.8204 50.1943C42.7582 50.3379 41.9499 51.0535 41.2107 51.1445C41.6145 51.5075 43.1874 51.5449 44.437 51.1425C47.2466 50.2364 51.598 45.6876 52.8983 43.9815C52.8206 44.1123 52.7182 44.28 52.596 44.4802C51.4763 46.3146 48.6977 50.8668 48.11 54.5232C47.7695 56.6423 48.0169 58.3949 49.2579 58.5766C49.4999 60.6018 51.0316 62.0681 52.1392 61.9279C52.3288 61.9046 52.5267 61.7515 52.5855 61.4533C53.6793 55.8899 61.2325 46.5882 61.9193 47.53C59.5087 50.7706 57.3484 57.0193 58.4247 59.9807C59.0717 61.7607 61.7853 62.4437 65.3159 61.0402C62.4934 59.6988 63.13 52.8332 64.2181 50.1465C63.3371 54.5128 63.9012 58.3929 65.0742 59.2971L65.146 59.2521C63.3314 51.0587 67.4742 43.3552 70.4742 40.1696C70.7429 39.7168 70.7504 39.3622 70.5191 38.9086Z" fill="#ffffff"/>
<path d="M112.957 50.2875C114.352 48.6334 114.322 46.0173 113.877 45.5293C117.675 45.2074 114.797 49.78 112.957 50.2875Z" fill="#ffffff"/>
<path d="M32.2016 62.4709C27.2328 64.5177 28.922 70.6189 32.2914 70.0114C29.7785 69.5775 29.6939 64.5065 35.81 63.2355C35.7822 61.921 33.5104 61.931 32.2016 62.4709Z" fill="#ffffff"/>
<path d="M25.0294 75.584C25.7927 76.2025 25.717 77.1958 24.569 77.3878C23.549 77.558 22.467 76.537 22.0723 75.3311C21.4399 73.398 22.4801 71.4443 23.4807 70.7222C22.7438 72.0314 23.4038 74.2694 25.0294 75.584Z" fill="#ffffff"/>
<path fill-rule="evenodd" clip-rule="evenodd" d="M112.338 44.9686C111.455 42.7594 102.099 43.6601 96.5797 46.0382C96.4604 45.7693 96.3345 45.5179 96.1997 45.285C97.7705 41.286 102.542 33.9752 107.65 28.9939C108.531 28.1347 109.422 27.3449 110.308 26.6532C110.412 25.1622 106.441 23.2254 103.819 25.349C100.62 28.7483 97.3335 35.3688 95.8788 38.5055L95.5755 38.5159C96.2486 35.0033 99.8133 28.6027 101.99 26.5108C99.1402 26.6105 93.153 38.4663 89.931 49.3683H89.9238C86.5263 50.8028 80.1954 54.6341 78.0311 56.931C77.9107 57.0589 77.7535 56.5865 77.7431 56.4185C77.4061 51.1251 83.1263 47.1654 88.2841 43.595C88.7684 43.2598 89.2477 42.9279 89.7165 42.5988C90.4067 42.1137 89.9356 40.6873 89.6465 40.4383C88.6238 41.9461 86.7192 43.4909 84.7461 45.0914C82.7514 46.7094 80.6866 48.3842 79.3921 50.135C80.3076 48.3644 82.7223 46.2232 84.9323 44.2634C87.2326 42.2235 89.3113 40.3802 89.2472 39.356C89.0651 36.4519 85.3786 33.4544 83.8 32.6563C84.0865 32.1603 84.8019 30.7843 84.5631 29.3175C84.2902 27.6398 82.5438 26.9016 81.0659 27.0452C81.3312 28.0269 81.0416 29.5605 80.7724 30.3724C77.8971 28.4321 73.4275 28.1361 73.3878 30.6177C75.3762 29.1933 79.4959 30.2278 81.3136 31.4631C73.2947 28.8624 71.2377 33.197 72.2743 35.4912C72.2743 35.4912 75.6127 35.3907 78.2964 36.3818C77.6913 38.0928 73.6958 46.0451 69.1289 50.9904C69.2399 50.9545 69.3496 50.9232 69.4571 50.8926L69.4578 50.8924C69.6622 50.8341 69.8586 50.7781 70.0405 50.6967C70.5935 50.4511 75.6598 43.6569 77.0628 41.5439C77.0903 41.6771 75.9374 44.0757 73.8109 47.3453C76.1749 44.6256 79.9891 38.6926 80.9449 37.1716C80.9449 37.1716 83.7433 38.2683 83.866 40.2253C83.9545 41.6392 81.3601 43.8997 78.3724 46.5029C74.3563 50.0022 69.6293 54.1207 69.7531 57.6342C69.7928 58.7583 70.3805 60.3985 71.5554 61.4659C71.0794 60.5104 70.8438 59.2592 70.9981 57.8599C71.2125 55.9135 72.1802 53.6815 74.3055 51.5588C70.393 56.4136 71.7751 60.8067 72.6123 62.0129C59.8445 62.8199 49.4983 67.358 49.4494 74.4059C49.4795 74.5609 49.347 74.7725 49.2474 74.9293C47.9619 76.9578 48.5236 79.4887 49.3999 79.7936C55.42 72.5362 65.7327 66.6077 74.7841 64.9055C74.7856 64.7372 74.0537 64.7622 72.8681 64.951C68.4867 65.5678 62.9349 67.1499 58.467 69.8355C58.3466 66.0953 74.5833 62.3046 84.8068 63.7552C84.9746 62.2723 81.8116 61.6953 78.2924 61.6373C79.9656 55.0004 90.4461 49.5003 94.4778 48.124C90.4985 49.8171 84.1042 53.7605 81.2537 58.0547C83.9476 55.6507 87.5322 53.0561 89.0484 52.3543C85.3106 67.8163 89.2712 74.1078 92.1002 74.0093C94.0663 73.9407 95.8868 71.9079 97.0253 67.2519C96.1311 69.3409 94.9947 70.7498 93.9164 70.7875C91.2413 70.8809 90.8874 66.9164 90.8874 66.9164C92.5974 71.2686 97.5086 67.8834 98.046 60.1187C98.0839 59.5817 98.1175 59.0309 98.1438 58.458C98.2604 55.9351 98.1493 52.8146 97.6926 50.0828C101.518 48.9114 107.714 48.829 109.388 50.1214C109.801 47.8171 105.548 47.2764 98.6586 48.7795C103.323 47.2683 109.919 46.7356 110.353 48.9535C110.573 50.0793 109.923 51.7412 109.427 52.3802C109.187 52.6883 109.982 52.4549 110.19 52.1863C111.341 50.7091 113.237 47.2187 112.338 44.9686ZM93.6126 65.5741C91.4867 65.7007 91.8447 57.4711 94.3931 50.8938C94.6304 50.7915 94.8989 50.6984 95.1889 50.6102C95.6288 55.674 94.8112 61.0909 93.9653 63.4698C95.1802 63.4278 96.5134 58.138 96.4367 53.1158L96.6891 53.1074C97.372 61.1027 94.9504 65.5269 93.6126 65.5741Z" fill="#ffffff"/>
</svg>
