<svg version="1.2" xmlns="http://www.w3.org/2000/svg" viewBox="0 0 642 643" width="642" height="643">
	<title>surf_circle-svg</title>
	<style>
		.s0 { fill: #2834f8 } 
	</style>
	<path id="Layer" class="s0" d="m452.9 572.3l-6.4 7.8q-3.9-5.5-8.1-7.1-4.2-1.7-9.4 0.5-3.7 1.7-5.2 4.6-1.5 3-0.1 6.1 1.4 3.3 4.8 4 3.4 0.6 10-1 7.6-1.8 13.5 0 6 1.8 8.6 7.8 2.7 6.1-0.4 12.2-3 6-10.5 9.3-7.2 3.1-13.6 1.8-6.4-1.3-10.7-6.4l5.5-7.7q3.5 4.1 7.2 5 3.6 0.9 8-1 3.5-1.6 5.2-3.9 1.7-2.3 0.6-4.8-1.3-2.9-5-3.5-3.7-0.6-10.6 1-8.7 1.9-13.9-0.1-5.3-2-8-8.4-2.9-6.5 0.1-13.1 2.9-6.7 10.9-10.1 8.3-3.7 15.3-1.7 7.1 2 12.2 8.7z"/>
	<path id="Layer" class="s0" d="m409.2 594.3l8.4 33.7-10 2.5-8.4-34.1q-1.3-5.2-4.5-7.3-3.1-2.1-7.6-1-4.5 1.2-6.3 4.5c-1.2 2.2-1.4 5-0.5 8.5l8.4 34.1-10 2.5-8.3-33.8q-2.4-9.6 1.4-16.1 3.9-6.6 13-8.9 9.2-2.2 15.6 1.8 6.5 4 8.8 13.6z"/>
	<path id="Layer" fill-rule="evenodd" class="s0" d="m360 585.6l4.1 54.4-19.6 1.5q-8.9 0.7-14.4-3.1-5.6-3.8-6.1-10.8-0.4-6.1 2.1-10.1 2.6-4 8.2-6.8l-14.7-21.9 11.7-0.9 14 21.1 6.1-0.5-1.7-22 10.3-0.8zm-7.9 31.8l-9.9 0.8q-8.5 0.6-8 7.7c0.4 4.8 3.4 7 9.1 6.5l9.9-0.7-1.1-14.3z"/>
	<path id="Layer" class="s0" d="m314.3 588.4l-5 54.3-36.7-3.4 0.9-9.1 26.4 2.4 1.3-14-24.1-2.2 0.8-9.2 24.1 2.2 2-21.9 10.3 0.9z"/>
	<path id="Layer" class="s0" d="m213.5 590.6l-4.1 9.5-9.5-4 4-9.5z"/>
	<path id="Layer" fill-rule="evenodd" class="s0" d="m160.3 534.8l-35.9 41.1-14.7-12.9q-6.8-5.9-7.9-12.5-1.2-6.6 3.5-11.9 4-4.6 8.7-5.6 4.6-1 10.5 1.1l5.4-25.9 8.9 7.7-5.3 24.8 4.6 4 14.6-16.6 7.7 6.7zm-28.3 16.7l-7.4-6.5q-6.4-5.6-11.2-0.2-4.7 5.4 1.8 11l7.4 6.5z"/>
	<path id="Layer" class="s0" d="m126.3 504.1l-42.2 34.5-22.3-27.4 7.1-5.8 15.8 19.4 9.7-7.9-14.4-17.7 7.1-5.9 14.4 17.8 11.2-9.2-16-19.6 7.1-5.8 22.5 27.6z"/>
	<path id="Layer" class="s0" d="m85.9 479.7l-8.4-5.6q5-4.5 6.2-8.8 1.3-4.3-1.5-9.3-2-3.5-5.1-4.6-3.1-1.2-6.1 0.5-3.1 1.8-3.4 5.2-0.3 3.5 1.9 9.8 2.7 7.4 1.5 13.5-1.2 6.1-6.9 9.4-5.8 3.3-12.2 0.9-6.3-2.4-10.3-9.5-3.9-6.8-3.2-13.3 0.6-6.5 5.2-11.4l8.3 4.7q-3.7 3.9-4.3 7.7-0.5 3.7 1.8 7.8 1.9 3.4 4.4 4.8 2.5 1.4 4.9 0c1.8-1 2.8-2.7 2.9-5.2q0.2-3.8-2-10.5c-1.9-5.6-2.4-10.2-1.4-13.8q1.4-5.4 7.5-8.9 6.2-3.5 13.1-1.3 6.9 2.3 11.2 9.8 4.5 7.9 3.2 15.1-1.2 7.2-7.3 13z"/>
	<path id="Layer" class="s0" d="m77.3 429.8l-51.2 18.6-12-33.2 8.6-3.1 8.5 23.5 11.8-4.2-7.8-21.5 8.7-3.2 7.8 21.5 13.5-4.9-8.6-23.8 8.6-3.1 12.1 33.4z"/>
	<path id="Layer" fill-rule="evenodd" class="s0" d="m63.8 393.1l-56.9-8.4-1.7-9.8 50.3-27.9 2 10.8-13.3 6.9 2.9 15.7 14.8 1.8zm-26.3-13.9l-1.8-9.9-10.7 5.5q-3.7 1.8-5.6 2.5 2 0.1 6.2 0.4z"/>
	<path id="Layer" fill-rule="evenodd" class="s0" d="m55.7 344.6l-54.5 0.7-0.3-19.6q-0.1-8.9 4-14.2 4.1-5.2 11.2-5.4 6.2-0.1 10 2.8 3.8 2.7 6.2 8.6l22.9-13.3 0.1 11.7-21.9 12.7 0.1 6.1 22.1-0.3zm-31.3-9.9l-0.1-9.9q-0.1-8.6-7.3-8.4-7.1 0-7 8.6l0.1 9.9 14.3-0.2z"/>
	<path id="Layer" class="s0" d="m28.4 298.4q-12.2-1.8-19.2-9.5-6.9-7.8-5.2-18.2 1.2-7.5 5.8-11.7 4.6-4.3 11.9-4.8l2.8 9.5q-9.9 1.1-11.2 9.2-0.8 5.4 3.7 9.6 4.5 4.2 13 5.6 8.9 1.4 14.3-1.2 5.3-2.5 6.3-8.6 0.6-3.9-1.8-7-2.3-3.1-7.1-5.3l5.3-8.3q15.3 7.6 13 22.3-1.7 10.8-10.3 15.6-8.7 4.7-21.3 2.8z"/>
	<path id="Layer" class="s0" d="m62.9 256.6l-51.6-17.3 3.2-9.8 20.9 7 6-18-20.8-7 3.3-9.7 51.6 17.3-3.2 9.7-21.9-7.3-6 18 21.8 7.3z"/>
	<path id="Layer" class="s0" d="m87.7 152.2l-8.3-6.2 6.3-8.2 8.2 6.2z"/>
	<path id="Layer" class="s0" d="m137.1 93.4q-7.1-10-6.2-20.4 0.8-10.4 9.5-16.3 6.3-4.3 12.5-3.9 6.3 0.4 11.6 5.3l-4.9 8.6q-7.6-6.4-14.3-1.8-4.6 3.2-4.5 9.3 0 6.2 4.9 13.3 5.1 7.4 10.6 9.6 5.5 2.1 10.7-1.4 3.2-2.3 3.8-6.1 0.6-3.9-1.1-8.9l9.7-1.9q5 16.4-7.2 24.8-9.1 6.2-18.4 3.3-9.4-3-16.7-13.5z"/>
	<path id="Layer" fill-rule="evenodd" class="s0" d="m191.9 89.4l-23-49.4 17.8-8.3q8.1-3.8 14.6-2.2 6.5 1.6 9.5 8 2.6 5.5 1.6 10.2-1 4.6-5.3 9.2l21.5 15.4-10.7 4.9-20.5-14.8-5.5 2.6 9.3 20zm-3.8-32.5l9-4.2q7.7-3.6 4.7-10.1-3-6.5-10.8-2.9l-9 4.2z"/>
	<path id="Layer" class="s0" d="m233.8 70.7l-14.3-52.6 34.1-9.3 2.4 8.8-24.2 6.7 3.3 12.1 22.1-6.1 2.4 8.9-22.1 6 3.8 13.9 24.4-6.7 2.4 8.9-34.3 9.4z"/>
	<path id="Layer" fill-rule="evenodd" class="s0" d="m271.5 60.2l13-56.1 9.9-1 23.8 52.4-11 1.1-5.9-13.8-15.8 1.6-3 14.7zm16-25.2zm10.1-1l-4.7-11q-1.5-4-2.1-5.9c-0.1 1.3-0.4 3.4-0.8 6.2l-2.5 11.7z"/>
	<path id="Layer" class="s0" d="m334.3 56.7l3-44.9-14.6-0.9 0.7-9.5 39.5 2.6-0.7 9.5-14.6-1-3.1 44.9-10.2-0.7z"/>
	<path id="Layer" class="s0" d="m366.2 59.6l12.7-53 34.4 8.2-2.1 9-24.4-5.8-2.9 12.1 22.2 5.4-2.1 8.9-22.3-5.3-3.3 14 24.6 5.9-2.2 8.9-34.6-8.3z"/>
	<path id="Layer" class="s0" d="m470.3 74.4l5.5-8.7 8.8 5.5-5.6 8.7z"/>
	<path id="Layer" class="s0" d="m515 139.5l7-5.8 7.6 9.2 28.1-23.3-7.3-8.8 6.9-5.8 21.3 25.6-7 5.8-7.3-8.9-28.1 23.3 7.6 9.2-6.9 5.8-21.9-26.4z"/>
	<path id="Layer" class="s0" d="m541.9 172.8l47.2-27.3 5.2 9-19.6 29.6q-2.1 3.2-3.2 4.5l31.9-18.4 4.7 8.2-47.2 27.3-5.2-9.1 19.6-29.5q1.9-2.8 3.2-4.5l-31.9 18.4z"/>
	<path id="Layer" class="s0" d="m563.7 211.7l51.1-19 3.6 9.8-24.3 25.8q-2.6 2.8-3.9 3.9l34.5-12.7 3.3 8.9-51.1 18.9-3.6-9.8 24.3-25.8q2.4-2.4 3.9-3.9l-34.5 12.8-3.3-8.9z"/>
	<path id="Layer" fill-rule="evenodd" class="s0" d="m585.4 255.6q6.1-7 19.5-9.6 13.4-2.5 21.7 1.8 8.3 4.2 10.2 14.4 1.9 10.2-4.3 17.2-6.1 7-19.5 9.5-13.4 2.5-21.7-1.7-8.3-4.3-10.2-14.5-1.9-10.2 4.3-17.1zm5 15.4q2.1 11.1 20.7 7.6 18.5-3.5 16.4-14.6-2.1-11.2-20.6-7.7-18.6 3.5-16.5 14.7z"/>
	<path id="Layer" class="s0" d="m586.6 311.7l54.2-19.2 0.2 11-33.8 11.2q-3.5 1.1-6.3 1.9l6.3 1.7 34.2 9.8 0.2 11-54.8-17-0.2-10.4z"/>
	<path id="Layer" fill-rule="evenodd" class="s0" d="m587.3 338.2l51.2 26.2-1.5 9.9-56.6 10.3 1.6-11 14.7-2.3 2.4-15.7-13.4-6.5zm20.4 21.6l-1.5 10 11.9-1.8q4.1-0.5 6.1-0.6-1.8-0.7-5.7-2.3l-10.8-5.3z"/>
	<path id="Layer" class="s0" d="m575.1 399.9l42.8 13.9 4.6-13.9 9 2.9-12.3 37.6-9.1-2.9 4.6-13.9-42.8-14 3.2-9.7z"/>
	<path id="Layer" class="s0" d="m564.5 430.1l48.1 25.4-16.5 31.2-8.1-4.2 11.7-22.2-11.1-5.9-10.7 20.3-8.1-4.3 10.7-20.2-12.7-6.7-11.8 22.4-8.1-4.3 16.6-31.5z"/>
	<path id="Layer" class="s0" d="m521.9 529.6l7.1 7.5-7.6 7.1-7-7.5z"/>
</svg>